<svg xmlns="http://www.w3.org/2000/svg" viewBox="0 0 2000 2000" width="2000" height="2000" role="img">
  <defs>
    <linearGradient id="sky" x1="0" y1="0" x2="0" y2="1">
      <stop offset="0%" stop-color="#F3D9AE"/>
      <stop offset="55%" stop-color="#E0AC71"/>
      <stop offset="100%" stop-color="#B87642"/>
    </linearGradient>
    <linearGradient id="ground" x1="0" y1="0" x2="0" y2="1">
      <stop offset="0%" stop-color="#6E4E33" stop-opacity="0.5"/>
      <stop offset="100%" stop-color="#6E4E33" stop-opacity="0.92"/>
    </linearGradient>
    <linearGradient id="water" x1="0" y1="0" x2="0" y2="1">
      <stop offset="0%" stop-color="#E0AC71" stop-opacity="0.85"/>
      <stop offset="100%" stop-color="#B87642" stop-opacity="0.95"/>
    </linearGradient>
    <linearGradient id="haze" x1="0" y1="0" x2="0" y2="1">
      <stop offset="0%" stop-color="#E0AC71" stop-opacity="0"/>
      <stop offset="70%" stop-color="#E0AC71" stop-opacity="0.3"/>
      <stop offset="100%" stop-color="#E0AC71" stop-opacity="0"/>
    </linearGradient>
    <linearGradient id="sweep" x1="0" y1="0" x2="1" y2="1">
      <stop offset="0%" stop-color="#FFE3B8" stop-opacity="0.14"/>
      <stop offset="50%" stop-color="#FFE3B8" stop-opacity="0"/>
      <stop offset="100%" stop-color="#6E4E33" stop-opacity="0.2"/>
    </linearGradient>
    <filter id="soft"><feGaussianBlur stdDeviation="90.0"/></filter>
    <filter id="grain"><feTurbulence type="fractalNoise" baseFrequency="0.9" numOctaves="3"/></filter>
  </defs>
  <rect width="2000" height="2000" fill="url(#sky)"/>
  <circle cx="1440" cy="417.59999999999997" r="160" fill="#FFF0CE" opacity="0.55" filter="url(#soft)"/>
  <rect x="-100.0" y="867.8" width="240.1" height="296.2" fill="#6E4E33" opacity="0.30"/>
  <rect x="200.2" y="1026.2" width="535.9" height="137.8" fill="#6E4E33" opacity="0.38"/>
  <rect x="777.5" y="883.8" width="293.7" height="280.2" fill="#6E4E33" opacity="0.46"/>
  <rect x="1092.4" y="916.4" width="357.4" height="247.6" fill="#6E4E33" opacity="0.30"/>
  <rect x="1431.2" y="907.8" width="353.4" height="256.2" fill="#6E4E33" opacity="0.38"/>
  <rect x="1812.5" y="977.1" width="187.3" height="186.9" fill="#6E4E33" opacity="0.46"/>
  <rect x="2036.2" y="907.9" width="276.1" height="256.1" fill="#6E4E33" opacity="0.30"/>
  <rect x="0" y="1160" width="2000" height="840" fill="url(#ground)"/>
  <rect x="0" y="1160.0" width="2000" height="3" fill="#FFE3B8" opacity="0.35"/>
  <rect x="188.0" y="1464.7" width="282.6" height="54.6" rx="16.4" fill="#6E4E33" opacity="0.55"/>
  <rect x="1799.7" y="1387.0" width="268.8" height="68.0" rx="20.4" fill="#6E4E33" opacity="0.55"/>
  <rect x="193.2" y="1411.6" width="214.0" height="52.3" rx="15.7" fill="#6E4E33" opacity="0.55"/>
  <ellipse cx="324.1" cy="1391.7" rx="204.7" ry="255.9" fill="#6E4E33" opacity="0.72"/>
  <ellipse cx="1572.7" cy="1307.8" rx="244.2" ry="305.2" fill="#6E4E33" opacity="0.72"/>
  <rect x="0" y="880" width="2000" height="400" fill="url(#haze)"/>
  <rect x="0" y="0" width="2000" height="2000" fill="url(#sweep)"/>
  <rect x="0" y="0" width="2000" height="2000" filter="url(#grain)" opacity="0.05"/>
</svg>