<svg xmlns="http://www.w3.org/2000/svg" viewBox="0 0 2000 2000" width="2000" height="2000" role="img">
  <defs>
    <linearGradient id="sky" x1="0" y1="0" x2="0" y2="1">
      <stop offset="0%" stop-color="#E4E3D4"/>
      <stop offset="55%" stop-color="#CBCBB4"/>
      <stop offset="100%" stop-color="#A6A88C"/>
    </linearGradient>
    <linearGradient id="ground" x1="0" y1="0" x2="0" y2="1">
      <stop offset="0%" stop-color="#6A6C54" stop-opacity="0.5"/>
      <stop offset="100%" stop-color="#6A6C54" stop-opacity="0.92"/>
    </linearGradient>
    <linearGradient id="water" x1="0" y1="0" x2="0" y2="1">
      <stop offset="0%" stop-color="#CBCBB4" stop-opacity="0.85"/>
      <stop offset="100%" stop-color="#A6A88C" stop-opacity="0.95"/>
    </linearGradient>
    <linearGradient id="haze" x1="0" y1="0" x2="0" y2="1">
      <stop offset="0%" stop-color="#CBCBB4" stop-opacity="0"/>
      <stop offset="70%" stop-color="#CBCBB4" stop-opacity="0.3"/>
      <stop offset="100%" stop-color="#CBCBB4" stop-opacity="0"/>
    </linearGradient>
    <linearGradient id="sweep" x1="0" y1="0" x2="1" y2="1">
      <stop offset="0%" stop-color="#C0A06A" stop-opacity="0.14"/>
      <stop offset="50%" stop-color="#C0A06A" stop-opacity="0"/>
      <stop offset="100%" stop-color="#6A6C54" stop-opacity="0.2"/>
    </linearGradient>
    <filter id="soft"><feGaussianBlur stdDeviation="90.0"/></filter>
    <filter id="grain"><feTurbulence type="fractalNoise" baseFrequency="0.9" numOctaves="3"/></filter>
  </defs>
  <rect width="2000" height="2000" fill="url(#sky)"/>
  <circle cx="1440" cy="417.59999999999997" r="160" fill="#F4F1E2" opacity="0.55" filter="url(#soft)"/>
  <rect x="-100.0" y="971.9" width="289.8" height="192.1" fill="#6A6C54" opacity="0.30"/>
  <rect x="185.3" y="908.0" width="271.3" height="256.0" fill="#6A6C54" opacity="0.38"/>
  <rect x="507.5" y="876.5" width="208.9" height="287.5" fill="#6A6C54" opacity="0.46"/>
  <rect x="734.3" y="890.7" width="310.3" height="273.3" fill="#6A6C54" opacity="0.30"/>
  <rect x="1036.2" y="934.8" width="183.6" height="229.2" fill="#6A6C54" opacity="0.38"/>
  <rect x="1254.0" y="1059.6" width="193.1" height="104.4" fill="#6A6C54" opacity="0.46"/>
  <rect x="1462.2" y="948.0" width="267.7" height="216.0" fill="#6A6C54" opacity="0.30"/>
  <rect x="1731.3" y="921.2" width="371.9" height="242.8" fill="#6A6C54" opacity="0.38"/>
  <rect x="2067.7" y="1051.9" width="467.1" height="112.1" fill="#6A6C54" opacity="0.46"/>
  <rect x="0" y="1160" width="2000" height="840" fill="url(#ground)"/>
  <rect x="0" y="1160.0" width="2000" height="3" fill="#C0A06A" opacity="0.35"/>
  <rect x="232.7" y="1497.8" width="305.9" height="58.5" rx="17.5" fill="#6A6C54" opacity="0.55"/>
  <rect x="1637.5" y="1501.6" width="236.6" height="67.3" rx="20.2" fill="#6A6C54" opacity="0.55"/>
  <rect x="105.1" y="1475.9" width="273.4" height="55.9" rx="16.8" fill="#6A6C54" opacity="0.55"/>
  <ellipse cx="430.6" cy="1395.0" rx="229.9" ry="287.4" fill="#6A6C54" opacity="0.72"/>
  <ellipse cx="1762.0" cy="1246.9" rx="120.2" ry="150.2" fill="#6A6C54" opacity="0.72"/>
  <ellipse cx="155.0" cy="1243.7" rx="211.5" ry="264.3" fill="#6A6C54" opacity="0.72"/>
  <ellipse cx="1835.9" cy="1217.7" rx="129.0" ry="161.3" fill="#6A6C54" opacity="0.72"/>
  <ellipse cx="399.7" cy="1388.0" rx="212.5" ry="265.6" fill="#6A6C54" opacity="0.72"/>
  <ellipse cx="1567.4" cy="1245.5" rx="151.5" ry="189.3" fill="#6A6C54" opacity="0.72"/>
  <rect x="0" y="880" width="2000" height="400" fill="url(#haze)"/>
  <rect x="0" y="0" width="2000" height="2000" fill="url(#sweep)"/>
  <rect x="0" y="0" width="2000" height="2000" filter="url(#grain)" opacity="0.05"/>
</svg>